<svg xmlns="http://www.w3.org/2000/svg" width="96" height="96" viewBox="0 0 96 96" fill="none">
  <defs>
    <linearGradient id="r" x1="0" y1="0" x2="96" y2="96">
      <stop offset="0%" stop-color="#36f581"/>
      <stop offset="60%" stop-color="#36f581"/>
      <stop offset="100%" stop-color="#a586ff"/>
    </linearGradient>
  </defs>
  <circle cx="48" cy="48" r="42" fill="#05090b"/>
  <circle cx="48" cy="48" r="42" stroke="url(#r)" stroke-width="5"/>
  <path d="M20 58c0-6 5-10 9-10 3 0 4 2 6 2h26c2 0 3-2 6-2 4 0 9 4 9 10v6c0 3-2 5-5 5H25c-3 0-5-2-5-5v-6z" fill="#36f581"/>
  <circle cx="31" cy="44" r="9" fill="#36f581"/>
  <circle cx="65" cy="44" r="9" fill="#36f581"/>
  <circle cx="31" cy="44" r="4" fill="#05090b"/>
  <circle cx="65" cy="44" r="4" fill="#05090b"/>
</svg>
